<svg width="113" height="32" viewBox="0 0 113 32" fill="none" xmlns="http://www.w3.org/2000/svg">
<path d="M12.0789 2.01164C13.4482 0.651065 15.6588 0.65107 17.0281 2.01164L26.4046 11.3305C26.4149 11.3407 26.4256 11.3513 26.4357 11.3618L26.7039 11.6431L26.7301 11.6715C30.0036 15.2721 29.8939 20.8371 26.4046 24.3047C24.666 26.0323 22.3997 26.5881 20.2349 26.4117C19.8674 26.3818 19.5006 26.3293 19.1358 26.2588L20.7985 29.1107C21.0922 29.6148 21.0951 30.2388 20.8073 30.7463C20.5192 31.2539 19.984 31.5675 19.404 31.5675H10.5105C9.61746 31.5675 8.8935 30.8374 8.8935 29.9368C8.8935 29.0362 9.61745 28.3061 10.5105 28.3061H16.5772L13.8174 23.5707C13.427 22.9008 13.5597 22.0461 14.1342 21.5284C14.7087 21.0107 15.5654 20.9739 16.1817 21.4402C17.4644 22.4107 19.0272 23.0415 20.4953 23.1611C21.9446 23.2791 23.2091 22.9008 24.1346 21.9811C26.3761 19.7535 26.448 16.1964 24.3542 13.8844L24.1346 13.6541L14.7581 4.33523C14.6478 4.2256 14.4593 4.22561 14.3489 4.33523L4.97148 13.6541C2.65508 15.9562 2.65506 19.679 4.97148 21.9811C6.1865 23.1886 8.0359 23.4781 10.0616 22.8876C10.9195 22.6376 11.8164 23.1367 12.0643 24.0019C12.312 24.8669 11.8172 25.7707 10.9595 26.0207C8.23014 26.8163 5.02011 26.6089 2.70145 24.3047C-0.900492 20.7251 -0.900476 14.9101 2.70145 11.3305L12.0789 2.01164Z" fill="url(#paint0_linear_780_2900)"/>
<path d="M8.8936 29.9368C8.89372 29.0925 9.53003 28.3983 10.3454 28.3149L10.5106 28.3061H16.5773L13.8175 23.5707C13.4517 22.9427 13.5449 22.1522 14.0313 21.6293L14.1343 21.5283C14.7088 21.0108 15.5655 20.974 16.1818 21.4401C17.4645 22.4107 19.0272 23.0414 20.4954 23.161C21.8539 23.2717 23.0501 22.9464 23.9568 22.1477L24.1346 21.9811C26.376 19.7535 26.448 16.1963 24.3542 13.8843L24.1346 13.654L14.7581 4.33512C14.6479 4.22565 14.4593 4.22567 14.349 4.33512L4.97159 13.654L4.76072 13.8745C2.65738 16.188 2.7278 19.751 4.97159 21.9811C6.11059 23.113 7.80708 23.4387 9.68364 22.9885L10.0617 22.8876C10.9194 22.6377 11.8164 23.1369 12.0644 24.0019C12.3121 24.8669 11.8172 25.7706 10.9596 26.0207L10.4426 26.1579C7.91936 26.7615 5.07182 26.4851 2.92118 24.5144L2.70157 24.3047C-0.787697 20.8369 -0.897128 15.2713 2.37408 11.6724L2.70157 11.3304L12.079 2.01152C13.4483 0.651116 15.6589 0.651098 17.0282 2.01152L26.4047 11.3304C26.4149 11.3406 26.4257 11.3513 26.4357 11.3618L26.704 11.643L26.7302 11.6714C30.0036 15.2719 29.8938 20.837 26.4047 24.3047L26.0723 24.6154C24.3829 26.0991 22.2643 26.577 20.235 26.4117C19.8675 26.3818 19.5007 26.3293 19.1359 26.2588L20.7986 29.1106C21.0922 29.6147 21.0951 30.2388 20.8073 30.7463L20.6878 30.9276C20.4278 31.2705 20.0431 31.4955 19.6189 31.5528L19.4041 31.5675V30.564C19.6265 30.564 19.8323 30.4441 19.9434 30.2484C20.0407 30.077 20.0516 29.8717 19.9775 29.6937L19.9405 29.6193L18.2779 26.7674C18.08 26.4278 18.0974 26.0026 18.3226 25.6806C18.5478 25.3586 18.9397 25.1998 19.3235 25.2739C19.6568 25.3383 19.9874 25.3854 20.3147 25.4121C22.2603 25.5706 24.2183 25.0684 25.706 23.5903C28.8121 20.5033 28.9095 15.5537 25.9965 12.3496L25.9868 12.3388L25.7186 12.0576C25.7175 12.0565 25.7157 12.0556 25.7137 12.0536C25.7127 12.0526 25.7121 12.051 25.7108 12.0497C25.7096 12.0485 25.7075 12.0473 25.706 12.0458L16.3295 2.72693C15.3476 1.75127 13.7596 1.75127 12.7777 2.72693L3.40026 12.0458C0.193883 15.2324 0.193843 20.4037 3.40026 23.5903C5.37773 25.5552 8.16804 25.7906 10.6836 25.0573C11.0135 24.961 11.2029 24.6132 11.1082 24.2812L11.0616 24.1626C10.927 23.9042 10.6261 23.7679 10.3376 23.8519C8.09096 24.5068 5.82483 24.2388 4.2729 22.6965C1.56104 20.0013 1.56117 15.6348 4.2729 12.9396L13.6503 3.62069L13.7475 3.53347C14.215 3.15497 14.8921 3.1549 15.3597 3.53347L15.4568 3.62069L24.8333 12.9396L24.8518 12.9582L25.0714 13.1885C25.0773 13.1947 25.0831 13.2017 25.0889 13.2081C27.5419 15.917 27.4572 20.0889 24.8333 22.6965C23.6589 23.8635 22.0869 24.2976 20.4157 24.1616C18.7393 24.025 16.9995 23.3137 15.5841 22.2428C15.3469 22.0636 15.0176 22.0783 14.797 22.2771C14.5762 22.4763 14.5257 22.8047 14.6756 23.062L17.4353 27.7974C17.6162 28.1077 17.6184 28.4925 17.4412 28.8049C17.2639 29.1172 16.9341 29.3096 16.5773 29.3096H10.5106C10.1672 29.3096 9.88881 29.5905 9.88868 29.9368C9.88868 30.2832 10.1671 30.564 10.5106 30.564V31.5675L10.3454 31.5597C9.58418 31.4818 8.9795 30.8711 8.90235 30.1034L8.8936 29.9368ZM19.4041 30.564V31.5675H10.5106V30.564H19.4041Z" fill="url(#paint1_linear_780_2900)"/>
<path fill-rule="evenodd" clip-rule="evenodd" d="M40.1952 23.5465C40.7364 23.5465 41.2146 23.6823 41.6285 23.9552C42.0425 24.2281 42.3692 24.6064 42.608 25.088C42.8467 25.5616 42.9656 26.0993 42.9656 26.7011C42.9656 27.3113 42.8422 27.8533 42.5954 28.327C42.3486 28.8006 42.0107 29.1742 41.5809 29.4471C41.159 29.72 40.6734 29.8567 40.1242 29.8567C39.6307 29.8567 39.1962 29.7481 38.8221 29.5314C38.4922 29.3331 38.2341 29.075 38.0466 28.7582V32H37.1263V23.7386H38.034V24.8479C38.0947 24.7245 38.167 24.6073 38.2497 24.4971C38.4725 24.2003 38.7512 23.9678 39.0854 23.7993C39.4275 23.6309 39.7974 23.5466 40.1952 23.5465ZM40.064 24.353C39.674 24.3531 39.3276 24.4617 39.0252 24.6784C38.7228 24.8871 38.4841 25.1803 38.309 25.5575C38.1339 25.9347 38.0466 26.3721 38.0466 26.8697V27.6419C38.1001 27.8077 38.1712 27.9641 38.2614 28.1104C38.4524 28.3993 38.6994 28.6278 39.0018 28.7964C39.3043 28.9649 39.6348 29.0492 39.993 29.0492C40.3909 29.0492 40.7374 28.949 41.0318 28.7484C41.3342 28.5477 41.5692 28.2704 41.7364 27.9173C41.9114 27.5642 41.9987 27.1586 41.9987 26.7011C41.9987 26.2436 41.9152 25.8382 41.748 25.4849C41.5889 25.1318 41.3622 24.8546 41.0678 24.6539C40.7812 24.4532 40.4461 24.353 40.064 24.353Z" fill="#F2F2FF"/>
<path fill-rule="evenodd" clip-rule="evenodd" d="M50.8699 23.5465C51.3714 23.5465 51.8096 23.6467 52.1837 23.8474C52.5578 24.04 52.8485 24.3172 53.0554 24.6784C53.2623 25.0316 53.3654 25.4493 53.3654 25.9308V29.6637H52.4937V28.8434C52.2937 29.1252 52.0401 29.3554 51.7299 29.5314C51.3478 29.7481 50.9097 29.8567 50.4161 29.8567C50.0024 29.8567 49.6363 29.7761 49.318 29.6157C48.9997 29.4551 48.749 29.2341 48.5659 28.9532C48.3908 28.6642 48.3026 28.3392 48.3025 27.9781C48.3025 27.376 48.53 26.8976 48.9837 26.5443C49.4454 26.1913 50.0621 26.0152 50.834 26.0151H52.4821V25.9671C52.4821 25.4694 52.3308 25.0752 52.0283 24.7862C51.7338 24.4894 51.3278 24.3413 50.8106 24.3413C50.134 24.3413 49.5603 24.6258 49.0906 25.1958L48.494 24.6059C49.1626 23.8995 49.9545 23.5465 50.8699 23.5465ZM50.9418 26.7619C50.4085 26.7619 49.9945 26.8658 49.6999 27.0745C49.4054 27.2752 49.2578 27.5645 49.2578 27.9418C49.2578 28.2869 49.3739 28.5642 49.6047 28.7729C49.8434 28.9813 50.1576 29.0854 50.5473 29.0855C50.9294 29.0855 51.2719 29.005 51.5744 28.8444C51.8769 28.6758 52.1202 28.4474 52.3033 28.1584C52.3756 28.041 52.4346 27.9169 52.4821 27.787V26.7619H50.9418Z" fill="#F2F2FF"/>
<path fill-rule="evenodd" clip-rule="evenodd" d="M90.5468 23.5465C91.08 23.5466 91.5499 23.6785 91.9559 23.9434C92.3697 24.2083 92.6919 24.5782 92.9228 25.0518C93.1535 25.5173 93.2687 26.055 93.2687 26.6649V27.0265H88.6519C88.6835 27.3486 88.7622 27.6417 88.887 27.9056C89.0621 28.2586 89.3046 28.5397 89.6149 28.7484C89.9333 28.9491 90.3037 29.0492 90.7256 29.0492C91.0918 29.0492 91.4223 28.9612 91.7168 28.7846C92.0113 28.608 92.2778 28.3346 92.5166 27.9653L93.1375 28.568C92.8272 29.0013 92.4611 29.3264 92.0394 29.5431C91.6256 29.7518 91.1677 29.8567 90.6663 29.8567C90.0773 29.8567 89.5555 29.72 89.1018 29.4471C88.656 29.1741 88.3051 28.8006 88.0504 28.327C87.8037 27.8453 87.6811 27.3032 87.6811 26.7011C87.6811 26.0993 87.8038 25.5615 88.0504 25.088C88.3051 24.6064 88.6476 24.2281 89.0775 23.9552C89.5153 23.6822 90.0055 23.5465 90.5468 23.5465ZM90.5468 24.353C90.1807 24.353 89.8501 24.4533 89.5556 24.6539C89.269 24.8466 89.0416 25.1199 88.8744 25.4732C88.766 25.7138 88.6952 25.9789 88.6606 26.268H92.3174C92.2664 25.7537 92.1112 25.3277 91.848 24.991C91.5217 24.5657 91.0879 24.3531 90.5468 24.353Z" fill="#F2F2FF"/>
<path d="M109.618 23.5465C110.111 23.5465 110.553 23.643 110.943 23.8356C111.333 24.0282 111.679 24.3008 111.982 24.6539L111.385 25.2919C111.162 24.995 110.903 24.7627 110.609 24.5941C110.322 24.4176 109.992 24.3285 109.618 24.3285C109.228 24.3286 108.909 24.4213 108.662 24.6059C108.416 24.7824 108.292 25.0112 108.292 25.2919C108.292 25.4444 108.337 25.5774 108.424 25.6898C108.512 25.794 108.659 25.8822 108.865 25.9544C109.072 26.0266 109.351 26.0912 109.701 26.1474C110.569 26.2759 111.182 26.4846 111.541 26.7737C111.899 27.0546 112.078 27.4563 112.078 27.9781C112.078 28.3472 111.974 28.676 111.767 28.9649C111.56 29.2458 111.274 29.4669 110.908 29.6274C110.55 29.7799 110.139 29.8567 109.678 29.8567C109.105 29.8567 108.611 29.7603 108.197 29.5676C107.783 29.3669 107.413 29.0936 107.086 28.7484L107.684 28.1104C107.938 28.4073 108.229 28.6443 108.555 28.8209C108.89 28.9894 109.264 29.0737 109.678 29.0737C110.108 29.0737 110.454 28.9735 110.717 28.7729C110.987 28.5722 111.123 28.3109 111.123 27.9898C111.123 27.7249 111.007 27.5161 110.776 27.3636C110.553 27.2031 110.167 27.0822 109.618 27.002C108.782 26.8655 108.193 26.6689 107.851 26.412C107.517 26.1552 107.35 25.7983 107.349 25.3409C107.349 24.9796 107.445 24.666 107.636 24.4011C107.827 24.1282 108.094 23.9193 108.436 23.7748C108.778 23.6224 109.172 23.5466 109.618 23.5465Z" fill="#F2F2FF"/>
<path d="M62.6554 24.5334H62.4523C62.0861 24.5334 61.7436 24.6298 61.4252 24.8225C61.1148 25.0071 60.864 25.2964 60.673 25.6898C60.482 26.0751 60.3863 26.5732 60.3863 27.1833V29.6637H59.4671V23.7386H60.3747V25.0508C60.4595 24.8223 60.5664 24.6258 60.6973 24.4618C60.9361 24.1728 61.2109 23.9641 61.5214 23.8356C61.8317 23.7073 62.1457 23.6426 62.464 23.6425H62.6554V24.5334Z" fill="#F2F2FF"/>
<path d="M69.5335 23.7386H71.1097V24.5334H69.5335V28.2544C69.5335 28.447 69.5809 28.5997 69.6764 28.7121C69.7718 28.8164 69.915 28.8688 70.1059 28.8689H71.1933V29.6637H69.8795C69.4655 29.6637 69.1508 29.5513 68.9359 29.3266C68.721 29.0937 68.6133 28.7642 68.6133 28.3387V24.5334H67.4909V23.7386H68.6133V22.005H69.5335V23.7386Z" fill="#F2F2FF"/>
<path d="M79.7778 23.5465C80.4542 23.5466 80.9836 23.7713 81.3656 24.2207C81.7556 24.6623 81.9506 25.3046 81.9506 26.1474V29.6637H81.0314V26.2552C81.0313 25.6293 80.8995 25.16 80.6368 24.847C80.3821 24.5258 80.0358 24.3648 79.598 24.3648C79.2797 24.3648 78.9815 24.4576 78.703 24.6421C78.4244 24.8187 78.1969 25.1034 78.0218 25.4967C77.8467 25.882 77.7595 26.384 77.7594 27.002V29.6637H76.8402V23.7386H77.7478V24.9518C77.8278 24.7295 77.9268 24.538 78.0461 24.3775C78.269 24.0805 78.5317 23.867 78.8342 23.7386C79.1366 23.6102 79.4515 23.5465 79.7778 23.5465Z" fill="#F2F2FF"/>
<path d="M102.298 24.5334H102.095C101.729 24.5334 101.387 24.63 101.069 24.8225C100.759 25.0071 100.507 25.2964 100.316 25.6898C100.125 26.0751 100.029 26.5732 100.029 27.1833V29.6637H99.1099V23.7386H100.018V25.0508C100.102 24.8223 100.209 24.6258 100.34 24.4618C100.579 24.1728 100.854 23.9641 101.164 23.8356C101.475 23.7072 101.789 23.6425 102.108 23.6425H102.298V24.5334Z" fill="#F2F2FF"/>
<path fill-rule="evenodd" clip-rule="evenodd" d="M55.6102 4.77751C56.6324 4.77751 57.5406 5.03932 58.334 5.56249C59.1272 6.0856 59.7609 6.80822 60.2338 7.73123C60.7068 8.65445 60.9432 9.70892 60.9432 10.8937C60.9432 12.0785 60.6987 13.1329 60.2105 14.0562C59.7375 14.9639 59.0888 15.6793 58.265 16.2024C57.4564 16.7255 56.541 16.9874 55.5188 16.9874C54.5728 16.9874 53.7485 16.7795 53.0467 16.3641C52.4908 16.0153 52.0427 15.5688 51.6969 15.0283V21.0955H49.4084V5.14697H51.6736V7.08051C51.7499 6.9388 51.8334 6.80171 51.9252 6.66989C52.3372 6.08517 52.8564 5.62367 53.482 5.28515C54.1228 4.94669 54.8321 4.77754 55.6102 4.77751ZM55.1758 6.73947C54.5045 6.73947 53.9094 6.92398 53.3907 7.29317C52.8719 7.66246 52.4597 8.17798 52.1546 8.83962C51.8494 9.48587 51.6969 10.2398 51.6969 11.1015V12.5646C51.7988 12.8764 51.9354 13.1662 52.1089 13.4329C52.4293 13.9252 52.8416 14.3176 53.345 14.6099C53.8636 14.8867 54.4278 15.0253 55.0378 15.0254C55.7397 15.0254 56.3508 14.8481 56.8696 14.4942C57.4034 14.1403 57.8148 13.6552 58.1047 13.0399C58.4098 12.4091 58.5624 11.6938 58.5624 10.8937C58.5623 10.0783 58.4178 9.36292 58.128 8.7475C57.8533 8.11662 57.4644 7.62356 56.9609 7.26965C56.4575 6.91582 55.8622 6.73952 55.1758 6.73947Z" fill="#F2F2FF"/>
<path d="M41.7189 4.77751C42.6953 4.77751 43.5804 4.96199 44.3737 5.33121C45.1671 5.68512 45.8621 6.20061 46.4572 6.87765L45.1288 8.37804C44.7017 7.82428 44.2063 7.39311 43.642 7.08541C43.0775 6.76231 42.444 6.60034 41.7422 6.60031C41.0709 6.60031 40.5213 6.75424 40.0941 7.06189C39.6669 7.35424 39.4537 7.73936 39.4537 8.21634C39.4537 8.47787 39.5295 8.70105 39.6821 8.88568C39.8346 9.07032 40.0943 9.22416 40.4604 9.34726C40.8266 9.45496 41.3378 9.56295 41.9939 9.67066C43.6721 9.93223 44.8542 10.3479 45.5408 10.9172C46.2426 11.4712 46.5942 12.2709 46.5942 13.3172C46.5942 14.0405 46.3881 14.6792 45.9761 15.2331C45.5794 15.7871 45.0147 16.218 44.2824 16.5258C43.5653 16.8335 42.7338 16.9873 41.7879 16.9874C40.7047 16.9874 39.7357 16.8029 38.8813 16.4337C38.0422 16.0644 37.3169 15.5488 36.7065 14.8872L37.9883 13.3868C38.4765 13.9254 39.0342 14.3563 39.6597 14.6794C40.3003 15.0024 41.0172 15.1635 41.8102 15.1636C42.5577 15.1636 43.1609 15.0025 43.6187 14.6794C44.0916 14.341 44.328 13.9099 44.328 13.3868C44.328 12.9406 44.13 12.5861 43.7333 12.3245C43.3367 12.0476 42.6424 11.8397 41.6508 11.7012C40.0489 11.4551 38.9043 11.0708 38.2176 10.5478C37.5463 10.0092 37.2099 9.27776 37.2099 8.35452C37.21 7.63163 37.4011 7.00866 37.7823 6.48565C38.1637 5.94719 38.6902 5.53144 39.3614 5.23909C40.0479 4.93137 40.834 4.77754 41.7189 4.77751Z" fill="#F2F2FF"/>
<path fill-rule="evenodd" clip-rule="evenodd" d="M67.9904 4.77751C68.9974 4.77751 69.8671 4.97005 70.5995 5.35473C71.3471 5.73941 71.927 6.2855 72.339 6.99329C72.7509 7.6857 72.957 8.50893 72.957 9.4629V16.6179H70.8745V15.1146C70.5082 15.634 70.044 16.0588 69.4781 16.3866C68.7763 16.7867 67.96 16.9874 67.0293 16.9874C66.2206 16.9874 65.5034 16.8335 64.8778 16.5258C64.2675 16.2026 63.7867 15.7636 63.4357 15.2096C63.085 14.6558 62.91 14.0249 62.91 13.3172C62.91 12.1325 63.3597 11.2094 64.2598 10.5478C65.1752 9.87073 66.4037 9.53249 67.9447 9.53248H70.8055C70.8055 8.64001 70.5388 7.93914 70.0048 7.43135C69.4708 6.90824 68.7383 6.6474 67.8077 6.64735C66.587 6.64735 65.5183 7.15471 64.6028 8.17028L63.2754 6.73947C64.6028 5.43159 66.1747 4.77755 67.9904 4.77751ZM68.1507 11.171C67.2352 11.171 66.518 11.3555 65.9992 11.7247C65.4958 12.0786 65.2442 12.5789 65.2442 13.2251C65.2442 13.8097 65.4423 14.2867 65.8389 14.6559C66.2508 15.0098 66.8004 15.1871 67.487 15.1871C68.1431 15.1871 68.731 15.0404 69.2498 14.748C69.7682 14.4558 70.1879 14.056 70.5082 13.5485C70.6262 13.3615 70.7248 13.1635 70.8055 12.9556V11.171H68.1507Z" fill="#F2F2FF"/>
<path fill-rule="evenodd" clip-rule="evenodd" d="M87.2564 16.6179H84.9903V14.9558C84.6368 15.5294 84.1652 15.9997 83.5715 16.3641C82.8849 16.7795 82.0758 16.9874 81.145 16.9874C80.123 16.9873 79.2003 16.7254 78.3765 16.2024C77.5679 15.6793 76.9193 14.9639 76.431 14.0562C75.9581 13.1329 75.7217 12.0785 75.7217 10.8937C75.7217 9.70892 75.9581 8.65445 76.431 7.73123C76.9193 6.80823 77.568 6.08557 78.3765 5.56249C79.2004 5.03935 80.1157 4.77751 81.1227 4.77751C81.916 4.77753 82.6253 4.9467 83.2508 5.28515C83.8764 5.60828 84.3876 6.06263 84.7843 6.64735C84.8499 6.74043 84.9105 6.83614 84.9679 6.93351V0H87.2564V16.6179ZM81.5571 6.76201C80.8859 6.76207 80.2906 6.93933 79.772 7.29317C79.2533 7.64707 78.8491 8.13209 78.5592 8.7475C78.2694 9.36292 78.1248 10.0783 78.1248 10.8937C78.1248 11.6937 78.2694 12.4091 78.5592 13.0399C78.8644 13.6554 79.2765 14.1403 79.7953 14.4942C80.3293 14.8481 80.9395 15.0254 81.6261 15.0254C82.2363 15.0254 82.7931 14.8868 83.2965 14.6099C83.8153 14.3175 84.2355 13.9253 84.5559 13.4329C84.731 13.176 84.8676 12.8977 84.9679 12.5989V11.1015C84.9679 10.2398 84.8225 9.48587 84.5326 8.83962C84.2428 8.1781 83.8385 7.67059 83.3198 7.31669C82.8163 6.9474 82.2284 6.76201 81.5571 6.76201Z" fill="#F2F2FF"/>
<path fill-rule="evenodd" clip-rule="evenodd" d="M95.8341 4.77751C96.8717 4.77751 97.7879 5.03932 98.5813 5.56249C99.3744 6.07017 99.9921 6.77769 100.434 7.68517C100.892 8.59303 101.121 9.63214 101.121 10.8016V11.6326H92.6079C92.6712 12.159 92.8002 12.636 92.9966 13.0634C93.3018 13.6789 93.7291 14.171 94.2784 14.5403C94.8428 14.8941 95.5139 15.0714 96.2918 15.0714C96.9784 15.0714 97.5967 14.9176 98.146 14.6099C98.6952 14.3021 99.1832 13.8478 99.6104 13.2477L100.961 14.702C100.366 15.4713 99.6569 16.049 98.833 16.4337C98.0244 16.8029 97.1393 16.9873 96.1781 16.9874C94.988 16.9874 93.9425 16.7255 93.0423 16.2024C92.1574 15.6792 91.4633 14.9559 90.9598 14.0326C90.4563 13.1094 90.2048 12.0631 90.2048 10.8937C90.2048 9.72434 90.4483 8.67795 90.9365 7.75475C91.44 6.83151 92.1118 6.1082 92.9509 5.58503C93.8052 5.04661 94.7663 4.77757 95.8341 4.77751ZM95.8118 6.69341C95.171 6.69341 94.6063 6.86253 94.118 7.20105C93.6298 7.53957 93.2479 8.02454 92.9733 8.65538C92.7999 9.05384 92.6815 9.49229 92.6176 9.97054H98.8165C98.7256 9.08098 98.4657 8.35024 98.0313 7.77827C97.4973 7.05511 96.7577 6.69345 95.8118 6.69341Z" fill="#F2F2FF"/>
<path d="M107.787 4.77751C108.763 4.77751 109.648 4.96199 110.442 5.33121C111.235 5.68512 111.93 6.20061 112.525 6.87765L111.197 8.37804C110.77 7.82428 110.274 7.39311 109.71 7.08541C109.145 6.76231 108.512 6.60034 107.81 6.60031C107.139 6.60031 106.589 6.75424 106.162 7.06189C105.735 7.35424 105.522 7.73936 105.522 8.21634C105.522 8.47787 105.597 8.70105 105.75 8.88568C105.903 9.07032 106.162 9.22416 106.528 9.34726C106.895 9.45496 107.406 9.56295 108.062 9.67066C109.74 9.93223 110.922 10.3479 111.609 10.9172C112.311 11.4712 112.662 12.2709 112.662 13.3172C112.662 14.0405 112.456 14.6792 112.044 15.2331C111.647 15.7871 111.083 16.218 110.35 16.5258C109.633 16.8335 108.802 16.9873 107.856 16.9874C106.773 16.9874 105.804 16.8029 104.949 16.4337C104.11 16.0644 103.385 15.5488 102.774 14.8872L104.056 13.3868C104.544 13.9254 105.102 14.3563 105.728 14.6794C106.368 15.0024 107.085 15.1635 107.878 15.1636C108.626 15.1636 109.229 15.0025 109.687 14.6794C110.159 14.341 110.396 13.9099 110.396 13.3868C110.396 12.9406 110.198 12.5861 109.801 12.3245C109.405 12.0476 108.71 11.8397 107.719 11.7012C106.117 11.4551 104.972 11.0708 104.286 10.5478C103.614 10.0092 103.278 9.27776 103.278 8.35452C103.278 7.63163 103.469 7.00866 103.85 6.48565C104.232 5.94719 104.758 5.53144 105.429 5.23909C106.116 4.93137 106.902 4.77754 107.787 4.77751Z" fill="#F2F2FF"/>
<defs>
<linearGradient id="paint0_linear_780_2900" x1="7.27649" y1="9.14507" x2="14.6615" y2="28.6727" gradientUnits="userSpaceOnUse">
<stop stop-color="#CD9F55"/>
<stop offset="1" stop-color="#FFDB99"/>
</linearGradient>
<linearGradient id="paint1_linear_780_2900" x1="7.27649" y1="9.14507" x2="14.6615" y2="28.6727" gradientUnits="userSpaceOnUse">
<stop stop-color="#FFDB99"/>
<stop offset="1" stop-color="#CD9F55"/>
</linearGradient>
</defs>
</svg>
